HIERARCHY
ROOT Hips
{
 OFFSET 0.000000 0.000000 0.000000
 CHANNELS 6 Xposition Yposition Zposition Yrotation Xrotation Zrotation
 JOINT Chest
 {
  OFFSET 0.000000 9.303000 0.001900
  CHANNELS 3 Yrotation Xrotation Zrotation
  JOINT Chest2
  {
   OFFSET 0.000000 9.301100 -0.003900
   CHANNELS 3 Yrotation Xrotation Zrotation
   JOINT Chest3
   {
    OFFSET 0.000000 9.262800 0.000000
    CHANNELS 3 Yrotation Xrotation Zrotation
    JOINT Chest4
    {
     OFFSET 0.000000 9.253300 0.000000
     CHANNELS 3 Yrotation Xrotation Zrotation
     JOINT Neck
     {
      OFFSET 0.000000 14.010300 0.000000
      CHANNELS 3 Yrotation Xrotation Zrotation
      JOINT Head
      {
       OFFSET 0.000000 8.657600 -0.008300
       CHANNELS 3 Yrotation Xrotation Zrotation
       End Site
       {
        OFFSET 0.000000 16.540200 -0.004400
       }
      }
     }
     JOINT RightCollar
     {
      OFFSET -2.834100 9.267700 0.000000
      CHANNELS 3 Yrotation Xrotation Zrotation
      JOINT RightShoulder
      {
       OFFSET -13.135200 0.000000 0.000000
       CHANNELS 3 Yrotation Xrotation Zrotation
       JOINT RightElbow
       {
        OFFSET 0.000000 -28.893500 0.000000
        CHANNELS 3 Yrotation Xrotation Zrotation
        JOINT RightWrist
        {
         OFFSET 0.000000 -23.344000 0.000000
         CHANNELS 3 Yrotation Xrotation Zrotation
         End Site
         {
          OFFSET 0.000000 -17.223000 0.000000
         }
        }
       }
      }
     }
     JOINT LeftCollar
     {
      OFFSET 2.834100 9.267700 0.000000
      CHANNELS 3 Yrotation Xrotation Zrotation
      JOINT LeftShoulder
      {
       OFFSET 13.135200 0.000000 0.000000
       CHANNELS 3 Yrotation Xrotation Zrotation
       JOINT LeftElbow
       {
        OFFSET 0.000000 -28.893500 0.000000
        CHANNELS 3 Yrotation Xrotation Zrotation
        JOINT LeftWrist
        {
         OFFSET 0.000000 -23.344000 0.000000
         CHANNELS 3 Yrotation Xrotation Zrotation
         End Site
         {
          OFFSET 0.000000 -17.223000 0.000000
         }
        }
       }
      }
     }
    }
   }
  }
 }
 JOINT RightHip
 {
  OFFSET -7.547200 -0.009500 -0.001000
  CHANNELS 3 Yrotation Xrotation Zrotation
  JOINT RightKnee
  {
   OFFSET 0.000000 -39.762800 0.000900
   CHANNELS 3 Yrotation Xrotation Zrotation
   JOINT RightAnkle
   {
    OFFSET 0.000000 -38.588200 0.001600
    CHANNELS 3 Yrotation Xrotation Zrotation
    JOINT RightToe
    {
     OFFSET 0.000000 -4.693300 10.419700
     CHANNELS 3 Yrotation Xrotation Zrotation
     End Site
     {
      OFFSET 0.000000 -1.379900 5.669300
     }
    }
   }
  }
 }
 JOINT LeftHip
 {
  OFFSET 7.547200 -0.009500 -0.001000
  CHANNELS 3 Yrotation Xrotation Zrotation
  JOINT LeftKnee
  {
   OFFSET 0.000000 -39.762800 0.000900
   CHANNELS 3 Yrotation Xrotation Zrotation
   JOINT LeftAnkle
   {
    OFFSET 0.000000 -38.588200 0.001600
    CHANNELS 3 Yrotation Xrotation Zrotation
    JOINT LeftToe
    {
     OFFSET 0.000000 -4.693300 10.419700
     CHANNELS 3 Yrotation Xrotation Zrotation
     End Site
     {
      OFFSET 0.000000 -1.379900 5.669300
     }
    }
   }
  }
 }
}
MOTION
Frames: 6
Frame Time: 0.008333
28.842950 45.492497 -9.895495 165.143735 -27.178353 1.033727 2.898732 15.973143 3.646573 0.292637 1.661004 0.348305 0.494410 2.771808 0.586412 2.899896 14.204725 3.334419 13.683625 17.327503 -2.516800 16.269805 -6.496249 -6.155225 2.248332 1.944649 -10.028311 10.049121 -5.267446 -22.932984 36.368576 -63.341730 -4.025937 -2.735866 -20.634411 -41.812689 -10.760107 -4.024410 -2.705122 -9.610636 -9.343099 25.091570 -20.595510 -49.527649 -13.195268 0.450792 -35.113646 32.435878 -6.271032 -61.588690 3.291329 -162.297079 83.095708 -162.134656 -8.929408 -23.413953 7.022335 0.071545 0.249894 0.365246 1.507054 -60.675969 13.825030 101.964541 76.732663 103.064609 -10.014556 -9.450124 0.421713 -0.322967 0.029132 -0.344098
28.848767 45.533204 -9.896097 165.195899 -27.059120 0.936969 2.766261 15.769208 3.705055 0.276140 1.615958 0.348034 0.467298 2.699657 0.586213 2.794174 14.037753 3.364298 13.621749 17.476495 -2.478992 16.176811 -6.334161 -6.090997 2.705401 1.773541 -10.061368 10.653922 -5.301424 -23.447241 33.832866 -62.981552 -1.223299 -2.622444 -20.062068 -42.255769 -10.604379 -4.031793 -2.873491 -9.747532 -9.084077 24.630910 -20.391946 -49.066284 -12.932522 0.631403 -35.514741 32.376398 -6.433376 -61.605859 3.577595 -161.417256 83.153528 -161.335368 -9.028500 -23.431848 7.115855 0.101207 0.273543 0.331286 1.353390 -60.756714 13.798103 101.484540 76.614053 102.726071 -10.010905 -9.446289 0.305082 -0.304294 0.029304 -0.329776
28.858882 45.575764 -9.898875 165.224146 -26.949686 0.862984 2.636050 15.551019 3.746681 0.259597 1.570121 0.347263 0.440056 2.626093 0.585273 2.685249 13.864651 3.392248 13.559856 17.665096 -2.414918 16.075672 -6.127833 -5.995748 3.183946 1.576516 -10.086398 11.359655 -5.348507 -23.993162 30.974586 -62.587666 1.876461 -2.492550 -19.144273 -42.470290 -10.451972 -4.026352 -3.025359 -9.813625 -8.839577 24.180097 -20.207822 -48.605993 -12.731322 0.776567 -35.786859 32.267131 -6.482826 -61.625054 3.783241 -160.622997 83.201948 -160.584255 -9.102601 -23.443005 7.074579 0.107677 0.280295 0.375567 1.177843 -60.809637 13.817167 101.041283 76.513774 102.388430 -10.007978 -9.444938 0.187006 -0.272784 0.033176 -0.323820
28.874229 45.616095 -9.902096 165.220896 -26.839126 0.798432 2.526417 15.314645 3.790016 0.243631 1.523430 0.345704 0.413632 2.551151 0.583044 2.578035 13.684684 3.416121 13.492892 17.885582 -2.322894 15.960017 -5.886752 -5.866518 3.661365 1.359052 -10.092012 12.162966 -5.429831 -24.525221 27.799118 -62.142251 5.238745 -2.401596 -17.811476 -42.325773 -10.306774 -4.020856 -3.145072 -9.812657 -8.620191 23.731951 -20.077811 -48.132974 -12.588184 0.879572 -35.942142 32.118945 -6.408881 -61.671890 3.879869 -159.910390 83.226591 -159.835071 -9.127006 -23.410743 7.038127 0.146589 0.243474 0.384150 0.962438 -60.850900 13.914695 100.656032 76.439838 102.078749 -10.008427 -9.454167 0.064575 -0.219297 0.049788 -0.334929
28.885242 45.651614 -9.909076 165.186541 -26.731864 0.796620 2.431293 15.072857 3.782050 0.228965 1.475901 0.343303 0.389272 2.474750 0.579325 2.479314 13.496749 3.435570 13.412540 18.130654 -2.203324 15.819996 -5.620332 -5.701938 4.120681 1.134941 -10.070129 13.037483 -5.581433 -25.014241 24.426821 -61.622677 8.720809 -2.434229 -16.096252 -41.663699 -10.175855 -4.026205 -3.227358 -9.756958 -8.435946 23.290358 -20.030205 -47.634128 -12.502661 0.939940 -36.004585 31.929479 -6.087843 -61.759725 3.775216 -159.769302 83.234479 -159.634701 -9.201177 -23.333819 7.075497 0.117012 0.168144 0.406615 0.808438 -60.878682 13.965603 100.348083 76.384606 101.819761 -10.016728 -9.467977 -0.064210 -0.154466 0.055880 -0.302778
28.894999 45.679568 -9.918554 165.120302 -26.622980 0.830686 2.364919 14.824022 3.752328 0.216327 1.427612 0.340163 0.368281 2.396830 0.574462 2.396686 13.299730 3.452742 13.311816 18.393930 -2.059671 15.648430 -5.336609 -5.504591 4.549515 0.914493 -10.016527 13.951810 -5.834502 -25.457644 21.159505 -61.011857 12.022345 -2.697691 -14.226478 -40.412756 -10.071195 -4.049100 -3.271191 -9.661369 -8.297812 22.862901 -20.098858 -47.106342 -12.453199 0.960408 -35.990348 31.697791 -5.572734 -61.882310 3.498407 -159.884554 83.222194 -159.621914 -9.268602 -23.236918 7.106150 0.114915 0.071678 0.372613 0.662325 -60.901175 14.027531 100.133741 76.344665 101.625299 -10.005570 -9.498043 -0.215832 -0.101151 0.070248 -0.249759
